<mxfile host="app.diagrams.net" modified="2024-02-25T02:06:20.729Z" agent="Mozilla/5.0 (Windows NT 10.0; Win64; x64) AppleWebKit/537.36 (KHTML, like Gecko) Chrome/121.0.0.0 Safari/537.36" etag="SsZv9uY2W2WK6xZEds1V" version="23.1.6" type="github">
  <diagram name="第 1 页" id="NvG1tB-L-72gmUl_sYwa">
    <mxGraphModel dx="1434" dy="756" grid="1" gridSize="10" guides="1" tooltips="1" connect="1" arrows="1" fold="1" page="1" pageScale="1" pageWidth="827" pageHeight="1169" math="0" shadow="0">
      <root>
        <mxCell id="0" />
        <mxCell id="1" parent="0" />
        <mxCell id="8UBTjJtWvywQ8q2Q9EVj-10" style="edgeStyle=orthogonalEdgeStyle;rounded=0;orthogonalLoop=1;jettySize=auto;html=1;exitX=0.5;exitY=1;exitDx=0;exitDy=0;fontSize=14;strokeWidth=2;" edge="1" parent="1" source="5AzSfP-_tavQmxQkfzCJ-1" target="8UBTjJtWvywQ8q2Q9EVj-1">
          <mxGeometry relative="1" as="geometry" />
        </mxCell>
        <mxCell id="5AzSfP-_tavQmxQkfzCJ-1" value="开始" style="ellipse;whiteSpace=wrap;html=1;strokeWidth=2;fontFamily=Times New Roman;fontSize=14;" parent="1" vertex="1">
          <mxGeometry x="300" y="120" width="120" height="80" as="geometry" />
        </mxCell>
        <mxCell id="8UBTjJtWvywQ8q2Q9EVj-8" style="edgeStyle=orthogonalEdgeStyle;rounded=0;orthogonalLoop=1;jettySize=auto;html=1;exitX=0;exitY=0.5;exitDx=0;exitDy=0;entryX=0.5;entryY=0;entryDx=0;entryDy=0;fontSize=14;strokeWidth=2;" edge="1" parent="1" source="8UBTjJtWvywQ8q2Q9EVj-1" target="8UBTjJtWvywQ8q2Q9EVj-24">
          <mxGeometry relative="1" as="geometry">
            <mxPoint x="230" y="320" as="targetPoint" />
          </mxGeometry>
        </mxCell>
        <mxCell id="8UBTjJtWvywQ8q2Q9EVj-18" value="是" style="edgeLabel;html=1;align=center;verticalAlign=middle;resizable=0;points=[];fontSize=18;" vertex="1" connectable="0" parent="8UBTjJtWvywQ8q2Q9EVj-8">
          <mxGeometry x="-0.44" y="3" relative="1" as="geometry">
            <mxPoint x="-8" y="-23" as="offset" />
          </mxGeometry>
        </mxCell>
        <mxCell id="8UBTjJtWvywQ8q2Q9EVj-9" style="edgeStyle=orthogonalEdgeStyle;rounded=0;orthogonalLoop=1;jettySize=auto;html=1;exitX=1;exitY=0.5;exitDx=0;exitDy=0;fontSize=14;strokeWidth=2;" edge="1" parent="1" source="8UBTjJtWvywQ8q2Q9EVj-1">
          <mxGeometry relative="1" as="geometry">
            <mxPoint x="480" y="320" as="targetPoint" />
          </mxGeometry>
        </mxCell>
        <mxCell id="8UBTjJtWvywQ8q2Q9EVj-35" value="否" style="edgeLabel;html=1;align=center;verticalAlign=middle;resizable=0;points=[];fontSize=18;" vertex="1" connectable="0" parent="8UBTjJtWvywQ8q2Q9EVj-9">
          <mxGeometry x="-0.5685" y="2" relative="1" as="geometry">
            <mxPoint y="-18" as="offset" />
          </mxGeometry>
        </mxCell>
        <mxCell id="8UBTjJtWvywQ8q2Q9EVj-1" value="&lt;font style=&quot;font-size: 14px;&quot;&gt;是否为范围查询&lt;/font&gt;" style="rhombus;whiteSpace=wrap;html=1;strokeWidth=2;perimeterSpacing=0;fontFamily=Times New Roman;fontSize=14;" vertex="1" parent="1">
          <mxGeometry x="300" y="230" width="120" height="80" as="geometry" />
        </mxCell>
        <mxCell id="8UBTjJtWvywQ8q2Q9EVj-5" value="数据返回" style="ellipse;whiteSpace=wrap;html=1;fontFamily=Times New Roman;fontSize=14;strokeWidth=2;" vertex="1" parent="1">
          <mxGeometry x="300" y="660" width="120" height="80" as="geometry" />
        </mxCell>
        <mxCell id="8UBTjJtWvywQ8q2Q9EVj-27" style="edgeStyle=orthogonalEdgeStyle;rounded=0;orthogonalLoop=1;jettySize=auto;html=1;exitX=0.5;exitY=1;exitDx=0;exitDy=0;entryX=0.5;entryY=0;entryDx=0;entryDy=0;fontSize=14;strokeWidth=2;" edge="1" parent="1" source="8UBTjJtWvywQ8q2Q9EVj-23" target="8UBTjJtWvywQ8q2Q9EVj-25">
          <mxGeometry relative="1" as="geometry" />
        </mxCell>
        <mxCell id="8UBTjJtWvywQ8q2Q9EVj-23" value="将输入的查询值根据查询特性构建索引值，使用Get构建查询" style="rounded=1;whiteSpace=wrap;html=1;fontSize=14;strokeWidth=2;" vertex="1" parent="1">
          <mxGeometry x="420" y="320" width="140" height="60" as="geometry" />
        </mxCell>
        <mxCell id="8UBTjJtWvywQ8q2Q9EVj-28" style="edgeStyle=orthogonalEdgeStyle;rounded=0;orthogonalLoop=1;jettySize=auto;html=1;exitX=0.5;exitY=1;exitDx=0;exitDy=0;entryX=0.5;entryY=0;entryDx=0;entryDy=0;fontSize=14;strokeWidth=2;" edge="1" parent="1" source="8UBTjJtWvywQ8q2Q9EVj-24" target="8UBTjJtWvywQ8q2Q9EVj-25">
          <mxGeometry relative="1" as="geometry" />
        </mxCell>
        <mxCell id="8UBTjJtWvywQ8q2Q9EVj-24" value="将范围转化为索引值的上下界，使用Scan进行范围扫描" style="rounded=1;whiteSpace=wrap;html=1;fontSize=14;strokeWidth=2;" vertex="1" parent="1">
          <mxGeometry x="160" y="320" width="140" height="60" as="geometry" />
        </mxCell>
        <mxCell id="8UBTjJtWvywQ8q2Q9EVj-31" style="edgeStyle=orthogonalEdgeStyle;rounded=0;orthogonalLoop=1;jettySize=auto;html=1;exitX=0.5;exitY=1;exitDx=0;exitDy=0;fontSize=14;strokeWidth=2;" edge="1" parent="1" source="8UBTjJtWvywQ8q2Q9EVj-25" target="8UBTjJtWvywQ8q2Q9EVj-29">
          <mxGeometry relative="1" as="geometry" />
        </mxCell>
        <mxCell id="8UBTjJtWvywQ8q2Q9EVj-25" value="在二级索引表中查询对应主索引值" style="rounded=1;whiteSpace=wrap;html=1;fontSize=14;strokeWidth=2;" vertex="1" parent="1">
          <mxGeometry x="300" y="420" width="120" height="60" as="geometry" />
        </mxCell>
        <mxCell id="8UBTjJtWvywQ8q2Q9EVj-33" style="edgeStyle=orthogonalEdgeStyle;rounded=0;orthogonalLoop=1;jettySize=auto;html=1;exitX=0.5;exitY=1;exitDx=0;exitDy=0;entryX=0.5;entryY=0;entryDx=0;entryDy=0;fontSize=14;strokeWidth=2;" edge="1" parent="1" source="8UBTjJtWvywQ8q2Q9EVj-29" target="8UBTjJtWvywQ8q2Q9EVj-32">
          <mxGeometry relative="1" as="geometry" />
        </mxCell>
        <mxCell id="8UBTjJtWvywQ8q2Q9EVj-29" value="&lt;br style=&quot;font-size: 14px;&quot;&gt;&lt;span style=&quot;color: rgb(0, 0, 0); font-family: &amp;quot;Times New Roman&amp;quot;; font-size: 14px; font-style: normal; font-variant-ligatures: normal; font-variant-caps: normal; font-weight: 400; letter-spacing: normal; orphans: 2; text-align: center; text-indent: 0px; text-transform: none; widows: 2; word-spacing: 0px; -webkit-text-stroke-width: 0px; background-color: rgb(251, 251, 251); text-decoration-thickness: initial; text-decoration-style: initial; text-decoration-color: initial; float: none; display: inline !important;&quot;&gt;在主索引表中根据主索引值进行构建批量Get查询&lt;/span&gt;&lt;div style=&quot;font-size: 14px;&quot;&gt;&lt;br style=&quot;font-size: 14px;&quot;&gt;&lt;/div&gt;" style="rounded=1;whiteSpace=wrap;html=1;fontSize=14;strokeWidth=2;" vertex="1" parent="1">
          <mxGeometry x="300" y="500" width="120" height="60" as="geometry" />
        </mxCell>
        <mxCell id="8UBTjJtWvywQ8q2Q9EVj-34" style="edgeStyle=orthogonalEdgeStyle;rounded=0;orthogonalLoop=1;jettySize=auto;html=1;exitX=0.5;exitY=1;exitDx=0;exitDy=0;entryX=0.5;entryY=0;entryDx=0;entryDy=0;fontSize=14;strokeWidth=2;" edge="1" parent="1" source="8UBTjJtWvywQ8q2Q9EVj-32" target="8UBTjJtWvywQ8q2Q9EVj-5">
          <mxGeometry relative="1" as="geometry" />
        </mxCell>
        <mxCell id="8UBTjJtWvywQ8q2Q9EVj-32" value="使用Avro对轨迹数据进行反序列化" style="rounded=1;whiteSpace=wrap;html=1;fontSize=14;strokeWidth=2;" vertex="1" parent="1">
          <mxGeometry x="300" y="580" width="120" height="60" as="geometry" />
        </mxCell>
      </root>
    </mxGraphModel>
  </diagram>
</mxfile>
